<svg width="960" height="720" viewBox="0 0 960 720" fill="none" xmlns="http://www.w3.org/2000/svg">
  <rect width="960" height="720" rx="36" fill="#0A0B0E"/>
  <rect x="62" y="84" width="836" height="552" rx="28" fill="#101217" stroke="rgba(255,255,255,0.08)"/>
  <circle cx="242" cy="190" r="96" fill="#F5C400" fill-opacity="0.14"/>
  <circle cx="734" cy="528" r="128" fill="#F5C400" fill-opacity="0.12"/>
  <path d="M174 424H784" stroke="#F5C400" stroke-opacity="0.7" stroke-width="5" stroke-linecap="round"/>
  <path d="M198 388C252.667 334 328.333 307 425 307H563C640.333 307 704 285 754 241" stroke="white" stroke-opacity="0.8" stroke-width="6" stroke-linecap="round"/>
  <path d="M214 468C278.667 426 348 405 422 405H621C684.333 405 743 386 797 348" stroke="white" stroke-opacity="0.35" stroke-width="3" stroke-linecap="round"/>
  <circle cx="327" cy="474" r="46" fill="#050505" stroke="#F5C400" stroke-width="6"/>
  <circle cx="655" cy="474" r="46" fill="#050505" stroke="#F5C400" stroke-width="6"/>
  <path d="M124 540C266 504.667 385 487 481 487C577 487 709.333 504.667 878 540" stroke="white" stroke-opacity="0.12" stroke-width="2"/>
</svg>
